<svg width="31" height="31" viewBox="0 0 31 31" fill="none" xmlns="http://www.w3.org/2000/svg">
<path d="M29.2217 5.18497C28.8359 4.1886 28.2462 3.28377 27.4906 2.5284C26.7349 1.77303 25.8299 1.18375 24.8334 0.798301C23.6672 0.360562 22.4353 0.123869 21.19 0.0983006C19.585 0.0283006 19.0767 0.00830078 15.0067 0.00830078C10.9367 0.00830078 10.415 0.00830061 8.82336 0.0983006C7.579 0.122562 6.34795 0.359303 5.18336 0.798301C4.18658 1.1833 3.2813 1.77242 2.52558 2.52785C1.76986 3.28328 1.1804 4.18834 0.795023 5.18497C0.357198 6.35099 0.121048 7.58303 0.0966902 8.8283C0.0250236 10.4316 0.00335693 10.94 0.00335693 15.0116C0.00335693 19.0816 0.00335692 19.6 0.0966902 21.195C0.12169 22.4416 0.35669 23.6716 0.795023 24.84C1.18149 25.8362 1.77152 26.7409 2.52742 27.4963C3.28332 28.2516 4.18846 28.8409 5.18502 29.2266C6.34741 29.682 7.57898 29.9356 8.82669 29.9766C10.4317 30.0466 10.94 30.0683 15.01 30.0683C19.08 30.0683 19.6017 30.0683 21.1934 29.9766C22.4385 29.9513 23.6704 29.7152 24.8367 29.2783C25.8329 28.8919 26.7377 28.3022 27.4933 27.5466C28.2489 26.791 28.8387 25.8862 29.225 24.89C29.6634 23.7233 29.8984 22.4933 29.9234 21.2466C29.995 19.6433 30.0167 19.135 30.0167 15.0633C30.0167 10.9916 30.0167 10.475 29.9234 8.87997C29.904 7.61709 29.6666 6.36705 29.2217 5.18497ZM27.1917 21.0716C27.1809 22.0321 27.0056 22.9837 26.6734 23.885C26.4231 24.5331 26.0399 25.1216 25.5485 25.6128C25.0571 26.1039 24.4683 26.4867 23.82 26.7366C22.9287 27.0674 21.9873 27.2427 21.0367 27.255C19.4534 27.3283 19.0067 27.3466 14.9467 27.3466C10.8834 27.3466 10.4684 27.3466 8.85502 27.255C7.9049 27.2433 6.9639 27.068 6.07336 26.7366C5.42283 26.4883 4.83169 26.1061 4.33817 25.6149C3.84465 25.1237 3.45975 24.5343 3.20836 23.885C2.88077 22.9934 2.70554 22.053 2.69002 21.1033C2.61836 19.52 2.60169 19.0733 2.60169 15.0133C2.60169 10.9516 2.60169 10.5366 2.69002 8.92163C2.7008 7.96167 2.87612 7.01067 3.20836 6.10997C3.71669 4.79497 4.75836 3.75997 6.07336 3.25663C6.96434 2.92687 7.90506 2.75157 8.85502 2.7383C10.44 2.66663 10.885 2.64663 14.9467 2.64663C19.0084 2.64663 19.425 2.64663 21.0367 2.7383C21.9874 2.74974 22.929 2.92509 23.82 3.25663C24.4682 3.50709 25.0569 3.8903 25.5483 4.38168C26.0397 4.87306 26.4229 5.46175 26.6734 6.10997C27.0009 7.00155 27.1762 7.9419 27.1917 8.89163C27.2634 10.4766 27.2817 10.9216 27.2817 14.9833C27.2817 19.0433 27.2817 19.48 27.21 21.0733H27.1917V21.0716Z" fill="white"/>
</svg>
